<?xml version="1.0" encoding="utf-8"?>
<!-- Generator: Adobe Illustrator 16.0.0, SVG Export Plug-In . SVG Version: 6.00 Build 0)  -->
<!DOCTYPE svg PUBLIC "-//W3C//DTD SVG 1.1//EN" "http://www.w3.org/Graphics/SVG/1.1/DTD/svg11.dtd">
<svg version="1.1" id="Layer_1" xmlns="http://www.w3.org/2000/svg" xmlns:xlink="http://www.w3.org/1999/xlink" x="0px" y="0px"
	 width="165.908px" height="175.75px" viewBox="0.554 0.875 165.908 175.75" enable-background="new 0.554 0.875 165.908 175.75"
	 xml:space="preserve">
<path d="M150.044,125.724V36.995H16.966v88.729H150.044 M150.044,22.208c8.173,0,14.794,6.62,14.794,14.787v88.729
	c0,8.16-6.621,14.781-14.794,14.781h-36.966v14.787H53.932v-14.787H16.966c-8.167,0-14.787-6.621-14.787-14.781V36.995
	c0-8.167,6.62-14.787,14.787-14.787H150.044 M31.747,51.779h44.369v29.578H31.747V51.779 M31.747,96.142h44.369v14.788H31.747
	V96.142 M90.907,51.779h44.355V66.57H90.907V51.779 M90.907,81.357h44.355v29.572H90.907V81.357z"/>
</svg>
